<svg width="110" height="26" viewBox="0 0 110 26" fill="none" xmlns="http://www.w3.org/2000/svg">
<path d="M16.3133 9.64743C16.4233 9.75806 16.5541 9.84582 16.6982 9.90567C16.8422 9.96551 16.9967 9.99626 17.1527 9.99612C17.3087 9.996 17.4631 9.965 17.6071 9.90491C17.7511 9.84483 17.8817 9.75685 17.9915 9.64605C18.1013 9.53525 18.1881 9.4038 18.2469 9.2593C18.3057 9.1148 18.3353 8.9601 18.334 8.80411C18.3328 8.64812 18.3006 8.49392 18.2395 8.35039C18.1784 8.20687 18.0894 8.07687 17.9778 7.96788C16.9827 6.98282 15.718 6.31489 14.3433 6.04851C12.9687 5.78214 11.546 5.92927 10.255 6.47134C8.96401 7.01339 7.86271 7.92601 7.0903 9.09387C6.31777 10.2617 5.90895 11.6324 5.91541 13.0325C5.92175 14.4326 6.34313 15.7996 7.12623 16.9603C7.90932 18.121 9.01895 19.0236 10.3149 19.5537C11.6108 20.084 13.0348 20.2181 14.4069 19.939C15.7791 19.6601 17.0377 18.9807 18.0237 17.9865C18.133 17.8763 18.2195 17.7455 18.2782 17.6017C18.337 17.458 18.3669 17.3041 18.3661 17.1487C18.3654 16.9935 18.3341 16.8398 18.274 16.6967C18.2139 16.5535 18.1262 16.4236 18.0159 16.3142C17.9056 16.2049 17.7748 16.1184 17.6311 16.0597C17.4874 16.0009 17.3334 15.9711 17.1782 15.9717C17.0229 15.9725 16.8693 16.0038 16.7261 16.0638C16.5829 16.124 16.4529 16.2118 16.3436 16.322C15.6866 16.9849 14.8477 17.4382 13.9331 17.6244C13.0185 17.8106 12.0692 17.7214 11.2053 17.3681C10.3414 17.0149 9.60155 16.4134 9.07949 15.6396C8.55743 14.866 8.2765 13.9548 8.27215 13.0215C8.26793 12.0881 8.54052 11.1744 9.0555 10.3959C9.57048 9.61749 10.3047 9.00921 11.1654 8.64803C12.026 8.28685 12.9744 8.18899 13.8907 8.36681C14.807 8.54464 15.65 8.99017 16.313 9.64706L16.3133 9.64743Z" fill="url(#paint0_linear_20_39)"/>
<path d="M23.9425 17.9664C23.9411 17.1898 23.7856 16.4211 23.4851 15.7049C23.1847 14.9887 22.7451 14.3392 22.1919 13.794C21.9695 13.5731 21.8438 13.2731 21.8424 12.9596C21.8409 12.6461 21.9639 12.3448 22.1844 12.1219C23.2862 11.0073 23.901 9.50114 23.8938 7.93383C23.8866 6.36653 23.2581 4.86606 22.1461 3.76157C20.3192 1.953 17.9972 0.726632 15.4735 0.237503C12.9498 -0.251625 10.3378 0.0184396 7.96758 1.01356C5.59729 2.00868 3.57529 3.6842 2.15714 5.82827C0.738995 7.97236 -0.0116574 10.4888 0.000151174 13.0594C0.0118354 15.6301 0.785484 18.1394 2.22315 20.2705C3.66081 22.4016 5.6981 24.0585 8.07722 25.0319C10.4565 26.0053 13.0709 26.2516 15.59 25.7393C18.1092 25.2272 20.4199 23.9797 22.2301 22.1545C22.7783 21.6043 23.2118 20.9509 23.5058 20.2319C23.7997 19.5131 23.9481 18.7431 23.9425 17.9664ZM20.5504 20.4897C19.069 21.9848 17.1776 23.0069 15.1152 23.427C13.0529 23.847 10.9124 23.6461 8.96423 22.8496C7.01606 22.0531 5.34794 20.6968 4.17057 18.9521C2.99331 17.2076 2.35975 15.153 2.35018 13.0483C2.34049 10.9437 2.95515 8.88347 4.1165 7.12817C5.27771 5.37287 6.93353 4.00134 8.87423 3.18703C10.8149 2.37272 12.9536 2.15221 15.0197 2.55337C17.0858 2.95452 18.9866 3.95935 20.4816 5.44075C21.1488 6.10351 21.5259 7.00384 21.5302 7.94426C21.5345 8.88469 21.1657 9.78843 20.5046 10.4573C19.8434 11.126 19.4745 12.0296 19.4788 12.97C19.4831 13.9104 19.8602 14.8105 20.5274 15.4732C21.1956 16.1353 21.5734 17.0359 21.5778 17.9766C21.5821 18.9173 21.2125 19.8212 20.5504 20.4895" fill="url(#paint1_linear_20_39)"/>
<path d="M10.8986 13C10.8986 14.061 11.7587 14.9211 12.8197 14.9211C13.8806 14.9211 14.7407 14.061 14.7407 13C14.7407 11.939 13.8806 11.0789 12.8197 11.0789C11.7587 11.0789 10.8986 11.939 10.8986 13Z" fill="url(#paint2_linear_20_39)"/>
<path d="M27.772 21L31.036 4.2H33.832L37.732 14.484L41.644 4.2H44.44L47.704 21H44.32L42.46 11.364L38.872 20.832H36.592L33.016 11.364L31.144 21H27.772ZM57.1049 21.312C55.9689 21.312 54.9009 21.088 53.9009 20.64C52.9009 20.184 52.0209 19.556 51.2609 18.756C50.5089 17.956 49.9169 17.032 49.4849 15.984C49.0609 14.928 48.8489 13.8 48.8489 12.6C48.8489 11.392 49.0609 10.264 49.4849 9.216C49.9169 8.16 50.5089 7.236 51.2609 6.444C52.0209 5.644 52.9009 5.02 53.9009 4.572C54.9009 4.116 55.9689 3.888 57.1049 3.888C58.4649 3.888 59.7169 4.204 60.8609 4.836C62.0049 5.46 62.9529 6.296 63.7049 7.344L60.7529 8.94C60.3049 8.412 59.7649 7.992 59.1329 7.68C58.5009 7.36 57.8249 7.2 57.1049 7.2C56.4249 7.2 55.7849 7.34 55.1849 7.62C54.5849 7.9 54.0569 8.288 53.6009 8.784C53.1529 9.28 52.8009 9.852 52.5449 10.5C52.2889 11.148 52.1609 11.848 52.1609 12.6C52.1609 13.344 52.2889 14.044 52.5449 14.7C52.8009 15.348 53.1529 15.92 53.6009 16.416C54.0569 16.904 54.5849 17.292 55.1849 17.58C55.7849 17.86 56.4249 18 57.1049 18C57.8329 18 58.5089 17.84 59.1329 17.52C59.7649 17.2 60.3049 16.776 60.7529 16.248L63.7049 17.856C62.9529 18.896 62.0049 19.732 60.8609 20.364C59.7169 20.996 58.4649 21.312 57.1049 21.312ZM73.1422 21.312C71.7982 21.312 70.6142 20.984 69.5902 20.328C68.5742 19.672 67.7782 18.792 67.2022 17.688C66.6342 16.576 66.3502 15.344 66.3502 13.992V4.2H69.6622V13.992C69.6622 14.72 69.7982 15.388 70.0702 15.996C70.3422 16.604 70.7382 17.092 71.2582 17.46C71.7782 17.82 72.4062 18 73.1422 18C73.8862 18 74.5142 17.82 75.0262 17.46C75.5462 17.1 75.9382 16.616 76.2022 16.008C76.4662 15.4 76.5982 14.728 76.5982 13.992V4.2H79.9102V13.992C79.9102 15.008 79.7462 15.96 79.4182 16.848C79.0982 17.728 78.6382 18.504 78.0382 19.176C77.4382 19.848 76.7222 20.372 75.8902 20.748C75.0662 21.124 74.1502 21.312 73.1422 21.312ZM82.8158 21V4.2H89.4878C90.3998 4.2 91.2238 4.432 91.9598 4.896C92.7038 5.352 93.2918 5.968 93.7238 6.744C94.1638 7.512 94.3838 8.364 94.3838 9.3C94.3838 10.036 94.2558 10.72 93.9998 11.352C93.7438 11.976 93.3838 12.524 92.9198 12.996C92.4558 13.468 91.9158 13.836 91.2998 14.1L95.2958 21H91.4798L87.6518 14.4H86.1278V21H82.8158ZM86.1278 11.088H89.0918C89.4518 11.088 89.7798 11 90.0758 10.824C90.3798 10.64 90.6198 10.396 90.7958 10.092C90.9798 9.78 91.0718 9.436 91.0718 9.06C91.0718 8.692 90.9798 8.356 90.7958 8.052C90.6198 7.74 90.3798 7.492 90.0758 7.308C89.7798 7.124 89.4518 7.032 89.0918 7.032H86.1278V11.088ZM97.3814 21V4.2H100.693V17.688H107.461V21H97.3814Z" fill="white"/>
<defs>
<linearGradient id="paint0_linear_20_39" x1="-1.25637" y1="13.0001" x2="23.8694" y2="13.0001" gradientUnits="userSpaceOnUse">
<stop stop-color="white"/>
<stop offset="1" stop-color="white"/>
</linearGradient>
<linearGradient id="paint1_linear_20_39" x1="-1.24509" y1="13" x2="23.8708" y2="13" gradientUnits="userSpaceOnUse">
<stop stop-color="#0075C5"/>
<stop offset="1" stop-color="#0075C5"/>
</linearGradient>
<linearGradient id="paint2_linear_20_39" x1="-1.26561" y1="13" x2="23.8696" y2="13" gradientUnits="userSpaceOnUse">
<stop stop-color="#0075C5"/>
<stop offset="1" stop-color="#0075C5"/>
</linearGradient>
</defs>
</svg>
